<?xml version="1.0" standalone="no"?>
<!DOCTYPE svg PUBLIC "-//W3C//DTD SVG 20010904//EN"
 "http://www.w3.org/TR/2001/REC-SVG-20010904/DTD/svg10.dtd">
<svg version="1.0" xmlns="http://www.w3.org/2000/svg"
 width="300.000000pt" height="300.000000pt" viewBox="0 0 300.000000 300.000000"
 preserveAspectRatio="xMidYMid meet">
<metadata>
Created by potrace 1.10, written by Peter Selinger 2001-2011
</metadata>
<g transform="translate(0.000000,300.000000) scale(0.100000,-0.100000)"
fill="#a3042c" stroke="none">
<path d="M452 2363 l3 -556 45 0 45 0 0 511 0 512 703 0 702 0 0 -315 0 -315
315 0 315 0 0 -1015 0 -1015 -1017 0 -1018 0 0 136 0 136 -47 2 -48 2 0 -183
0 -183 1110 0 1110 0 0 1096 0 1095 -327 324 -328 324 -783 1 -782 0 2 -557z
m468 514 c30 -2 -37 -4 -150 -5 -224 -2 -240 -6 -257 -59 -5 -16 -8 -103 -8
-195 0 -93 -3 -168 -7 -168 -5 0 -8 95 -8 210 0 199 1 211 19 218 18 6 282 6
411 -1z m768 -3 c-5 -5 -682 -7 -703 -2 -5 1 37 4 95 7 123 7 615 3 608 -5z
m624 -302 c170 -169 310 -310 313 -313 10 -11 6 -2132 -4 -2138 -5 -3 -44 -4
-87 -2 l-79 5 60 7 c47 5 64 12 83 34 l23 28 -3 998 -3 998 -22 22 c-16 16
-38 24 -77 27 -31 2 -56 8 -56 13 0 5 8 9 18 9 31 1 55 27 48 53 -7 29 -428
453 -457 460 -10 3 -29 -3 -42 -13 -21 -18 -22 -23 -23 -227 -1 -229 4 -258
54 -269 55 -12 56 -19 3 -22 -30 -2 -58 1 -62 5 -5 5 -10 135 -11 290 -4 350
9 325 -171 334 l-122 5 155 2 155 2 307 -308z m207 -279 c2 -2 -104 -3 -237
-3 l-242 0 0 237 0 237 238 -234 c130 -129 239 -236 241 -237z m-2012 74 c3
-38 1 -48 -7 -37 -10 15 -11 105 -1 94 3 -2 7 -28 8 -57z m0 -142 c0 -47 -4
-85 -7 -85 -6 0 -7 157 -1 168 7 13 9 -11 8 -83z m1 -216 c1 -22 -1 -38 -6
-35 -11 6 -14 76 -4 76 4 0 8 -18 10 -41z m2 -100 c0 -22 -4 -38 -9 -35 -6 4
-8 60 -2 74 6 13 11 -5 11 -39z m-4 -1574 c-1 -19 -4 -35 -8 -35 -5 0 -8 16
-8 35 0 19 4 35 8 35 5 0 8 -16 8 -35z m1 -112 c-5 -34 27 -83 54 -83 30 0 22
-17 -10 -22 -49 -7 -61 6 -61 66 0 47 5 66 17 66 2 0 2 -12 0 -27z m823 -97
c14 -2 -45 -3 -130 -3 -103 0 -132 2 -85 6 66 6 159 4 215 -3z m498 -1 c5 -5
-27 -6 -283 -6 -208 0 -219 4 -30 11 173 5 305 4 313 -5z m140 -1 c-7 -6 -56
-8 -103 -3 -16 1 -1 5 35 8 67 6 78 5 68 -5z m221 0 c2 -2 -22 -3 -55 -3 -46
1 -52 3 -29 8 29 7 75 4 84 -5z m-1309 -1 c0 -5 -37 -7 -82 -5 -150 5 -165 8
-40 10 67 1 122 -1 122 -5z m1467 0 c-7 -7 -139 -5 -146 3 -2 2 31 4 74 4 43
0 75 -3 72 -7z"/>
<path d="M210 1108 l0 -523 775 0 775 0 0 523 0 522 -775 0 -775 0 0 -522z
m1514 476 c3 -9 6 -227 6 -485 l0 -469 -23 -9 c-26 -10 -1440 -11 -1456 -1
-17 10 -16 961 1 972 7 4 340 8 739 8 654 0 727 -2 733 -16z"/>
<path d="M368 1562 c-43 -2 -71 -8 -78 -17 -9 -11 -12 -112 -12 -387 0 -205 0
-397 1 -425 2 -90 -47 -84 712 -84 633 -1 663 0 681 18 17 18 18 42 19 437 0
404 0 420 -19 439 -19 19 -37 19 -628 21 -335 0 -639 0 -676 -2z m1297 -453
l0 -429 -682 0 -683 0 0 429 0 429 683 0 682 0 0 -429z"/>
<path d="M704 1410 c-50 -16 -77 -53 -82 -114 -6 -78 9 -112 93 -199 70 -73
75 -80 75 -122 0 -49 -20 -68 -58 -58 -21 5 -28 20 -34 72 -3 20 -9 24 -41 26
-47 3 -53 -9 -37 -74 20 -83 87 -123 170 -101 54 15 80 48 87 112 8 81 -8 118
-93 204 -70 70 -74 77 -74 119 0 52 25 74 60 55 20 -10 22 -16 24 -53 1 -15
10 -20 44 -22 41 -3 42 -2 42 26 0 42 -24 95 -52 112 -31 21 -86 28 -124 17z
m121 -62 c43 -51 27 -69 -17 -18 -73 83 -169 -27 -108 -124 10 -17 46 -57 78
-89 60 -58 72 -84 72 -150 0 -17 -11 -45 -26 -64 -21 -27 -32 -33 -64 -33 -21
0 -50 5 -63 11 -30 14 -53 57 -38 72 7 7 13 4 17 -9 30 -83 144 -65 144 23 0
48 -22 86 -96 164 -69 74 -79 98 -70 163 9 56 24 76 66 85 51 10 77 2 105 -31z"/>
<path d="M1014 1410 c-16 -5 -41 -21 -55 -36 -24 -25 -24 -28 -27 -243 l-3
-218 26 -31 c66 -79 201 -56 234 39 5 16 10 109 10 207 0 158 -2 183 -20 219
-28 56 -97 83 -165 63z m108 -42 c38 -19 45 -56 45 -243 1 -219 -10 -249 -87
-255 -63 -5 -95 10 -117 55 -7 15 -11 327 -4 391 0 6 12 23 26 38 20 22 32 26
72 25 26 -1 56 -6 65 -11z"/>
<path d="M1019 1341 c-26 -27 -29 -36 -30 -98 -2 -142 1 -305 6 -313 3 -5 18
-18 33 -29 26 -18 30 -18 60 -4 44 22 51 53 48 247 l-3 169 -31 29 c-40 35
-47 35 -83 -1z m71 -21 c18 -18 20 -33 20 -195 0 -162 -2 -177 -20 -195 -24
-24 -30 -24 -56 -6 -18 13 -19 28 -19 201 0 173 1 188 19 201 26 18 32 18 56
-6z"/>
<path d="M480 1177 c0 -251 -1 -257 -52 -257 -26 0 -28 -3 -28 -40 l0 -40 40
0 c23 0 55 7 71 16 53 27 59 58 59 319 l0 235 -45 0 -45 0 0 -233z m62 146 c6
-59 1 -349 -6 -382 -6 -29 -32 -58 -57 -66 -37 -12 -39 7 -4 39 l35 33 1 109
c0 60 0 155 -1 212 -1 82 2 102 13 102 10 0 16 -15 19 -47z"/>
<path d="M1250 1125 l0 -285 40 0 40 0 0 202 c0 151 -3 199 -11 191 -11 -11
-19 -139 -19 -284 0 -27 -4 -49 -9 -49 -5 0 -9 50 -9 113 0 61 -1 163 -2 225
-2 114 5 142 36 138 25 -4 33 -19 54 -101 23 -93 24 -98 10 -90 -6 4 -8 9 -6
13 5 9 -22 47 -29 40 -3 -3 17 -92 44 -199 l49 -194 49 -3 50 -3 0 286 1 285
-44 0 -44 0 0 -154 c0 -220 27 -214 32 6 2 87 10 124 20 96 3 -8 6 -116 6
-240 0 -188 -2 -229 -14 -239 -24 -20 -35 0 -68 126 -1 6 -5 19 -9 30 -12 38
-16 75 -7 75 5 0 10 -6 13 -12 2 -7 7 -10 11 -6 4 3 -10 76 -31 162 l-38 156
-57 0 -58 0 0 -285z"/>
</g>
</svg>
